<svg xmlns="http://www.w3.org/2000/svg" viewBox="0 0 15 15"><g><g><path d="M10.023.134H2.362A.605.605,0,0,0,1.757.74V17.26a.605.605,0,0,0,.605.606H15.638a.605.605,0,0,0,.6-.606V6.327a.605.605,0,0,0-.6-.606H11.232a.605.605,0,0,1-.6-.605V.74A.6.6,0,0,0,10.023.134Z" fill="#5ea0ef"></path><path d="M9.743.908V5.057a1.524,1.524,0,0,0,1.52,1.523h4.18V17.092H2.557V.908H9.743M10.036,0H2.264A.614.614,0,0,0,1.65.615v16.77A.614.614,0,0,0,2.264,18H15.736a.614.614,0,0,0,.614-.615V6.286a.614.614,0,0,0-.614-.614H11.263a.614.614,0,0,1-.613-.615V.615A.614.614,0,0,0,10.036,0Z" fill="url(#b8aa611c-0e57-4fe3-966d-5a83ebfa7580)"></path><path d="M16.116,5.794,10.438.134V4.746a1.041,1.041,0,0,0,1.035,1.048Z" fill="#0078d4"></path></g><g><path d="M7.064,13l-.278.279a.126.126,0,0,1-.178,0h0L4.551,11.228a.252.252,0,0,1,0-.356h0l.278-.278h0l2.235,2.228A.126.126,0,0,1,7.064,13Z" fill="#fff" opacity="0.6"></path><path d="M6.744,8.844l.279.278a.125.125,0,0,1,0,.177l-2.2,2.2h0l-.279-.277a.252.252,0,0,1,0-.356h0L6.566,8.844A.126.126,0,0,1,6.744,8.844Z" fill="#fff"></path><path d="M13.172,10.59l.278.279a.25.25,0,0,1,0,.355h0l-2.057,2.051a.125.125,0,0,1-.177,0h0L10.937,13a.125.125,0,0,1,0-.177h0l2.235-2.229Z" fill="#fff" opacity="0.6"></path><path d="M13.449,11.221l-.279.278h0l-2.2-2.2a.125.125,0,0,1,0-.178h0l.281-.281a.126.126,0,0,1,.178,0h0l2.018,2.025a.251.251,0,0,1,0,.355h0Z" fill="#fff"></path><path d="M9.755,8.306h.457a.13.13,0,0,1,.123.171L8.6,13.678a.131.131,0,0,1-.124.089H8.021A.13.13,0,0,1,7.9,13.6L9.631,8.4A.131.131,0,0,1,9.755,8.306Z" fill="#fff"></path></g></g></svg>
